<svg width="32" height="32" viewBox="0 0 32 32" fill="none" xmlns="http://www.w3.org/2000/svg">
<g id="Social Media">
<path id="Vector" fill-rule="evenodd" clip-rule="evenodd" d="M26.3887 7.21912C27.5355 7.52721 28.4427 8.43436 28.7507 9.58112C29.3156 11.6693 29.3327 15.9996 29.3327 15.9996C29.3327 15.9996 29.3327 20.3471 28.7679 22.4181C28.4598 23.5649 27.5526 24.472 26.4059 24.7801C24.3348 25.3449 15.9993 25.3449 15.9993 25.3449C15.9993 25.3449 7.66388 25.3449 5.59285 24.7801C4.44607 24.472 3.53893 23.5649 3.23084 22.4181C2.66602 20.33 2.66602 15.9996 2.66602 15.9996C2.66602 15.9996 2.66602 11.6693 3.21373 9.59824C3.52181 8.45147 4.42896 7.54433 5.57573 7.23624C7.64676 6.67141 15.9822 6.6543 15.9822 6.6543C15.9822 6.6543 24.3177 6.6543 26.3887 7.21912ZM20.2441 15.9996L13.3293 20.0047V11.9945L20.2441 15.9996Z" fill="white"/>
</g>
</svg>
